<?xml version="1.0" standalone="no"?>
<!DOCTYPE svg PUBLIC "-//W3C//DTD SVG 20010904//EN"
 "http://www.w3.org/TR/2001/REC-SVG-20010904/DTD/svg10.dtd">
<svg version="1.0" xmlns="http://www.w3.org/2000/svg"
 width="500.000000pt" height="500.000000pt" viewBox="0 0 500.000000 500.000000"
 preserveAspectRatio="xMidYMid meet">

<g transform="translate(0.000000,500.000000) scale(0.100000,-0.100000)"
fill="#000000" stroke="none">
<path d="M1952 4340 c-59 -12 -139 -58 -173 -99 -16 -20 -39 -59 -51 -88 l-22
-53 -326 0 c-324 0 -327 0 -361 -23 -19 -12 -38 -36 -44 -52 -19 -55 -17 -55
-160 -55 -127 0 -135 -1 -149 -22 -14 -20 -16 -192 -16 -1639 0 -1577 0 -1617
19 -1640 l19 -24 751 -3 751 -2 0 60 0 60 -710 0 -710 0 0 1550 0 1550 94 0
94 0 4 -81 c3 -66 7 -83 23 -95 16 -12 175 -14 1027 -14 1170 0 1048 -13 1048
115 l0 75 95 0 95 0 0 -1240 0 -1240 -155 0 -155 0 -1 128 c0 148 -11 187 -58
219 -30 20 -47 23 -130 23 -119 0 -160 -22 -176 -92 -6 -27 -8 -28 -78 -28
-132 0 -177 -45 -177 -177 l0 -73 -45 0 c-104 0 -135 -43 -135 -189 0 -97 1
-102 29 -133 25 -28 37 -33 88 -38 l58 -5 5 -80 c6 -87 16 -113 56 -144 22
-17 41 -21 109 -21 l83 0 6 -31 c10 -51 54 -86 120 -94 72 -9 151 -1 182 20
51 33 59 59 62 212 l4 144 151 -3 152 -3 3 -128 3 -127 -126 0 -126 0 3 -57 3
-58 135 -3 c74 -2 149 0 167 3 61 11 63 19 63 206 l0 170 93 -3 92 -3 5 -152
c5 -143 6 -153 29 -177 33 -35 91 -49 179 -44 95 6 133 33 156 110 5 15 18 18
81 18 83 0 126 15 147 53 7 12 15 60 18 107 l5 85 57 5 c94 8 128 59 127 185
-1 119 -46 175 -139 175 l-48 0 -4 89 c-2 72 -7 93 -23 111 -31 35 -78 50
-155 50 -57 0 -70 3 -70 15 0 29 -30 75 -60 90 -40 21 -200 21 -240 0 -51 -26
-60 -58 -60 -215 l0 -140 -95 0 -95 0 0 1278 c0 702 -4 1282 -8 1289 -16 25
-63 32 -176 26 l-114 -6 -20 46 c-13 29 -33 54 -54 67 -31 19 -50 20 -358 20
l-325 1 -35 72 c-26 54 -47 80 -83 108 -71 53 -163 75 -245 59z m126 -125 c20
-9 48 -26 61 -38 31 -29 61 -94 61 -134 0 -62 5 -63 392 -63 l348 0 0 -95 0
-95 -930 0 -930 0 0 95 0 95 348 0 c375 0 392 2 392 53 0 77 55 157 125 182
52 19 87 18 133 0z m740 -3017 l-3 -433 -62 -3 -63 -3 0 436 0 435 65 0 65 0
-2 -432z m990 0 l-3 -433 -62 -3 -63 -3 0 436 0 435 65 0 65 0 -2 -432z
m-1238 2 l0 -310 -65 0 -65 0 0 310 0 310 65 0 65 0 0 -310z m1480 0 l0 -310
-65 0 -65 0 0 303 c0 167 3 307 7 310 3 4 33 7 65 7 l58 0 0 -310z m-1730 -6
l0 -65 -32 3 c-32 3 -33 5 -36 52 -4 64 2 76 38 76 l30 0 0 -66z m1238 4 l-3
-63 -307 -3 -308 -2 0 65 0 65 310 0 311 0 -3 -62z m682 -3 l0 -65 -35 0 -35
0 0 65 0 65 35 0 35 0 0 -65z"/>
<path d="M900 2235 c0 -1292 0 -1305 20 -1325 20 -20 33 -20 585 -20 l565 0 0
60 0 60 -525 0 -525 0 0 1265 0 1265 -60 0 -60 0 0 -1305z"/>
<path d="M3000 2680 l0 -860 60 0 60 0 0 860 0 860 -60 0 -60 0 0 -860z"/>
<path d="M1655 3210 c-71 -72 -134 -130 -139 -130 -6 0 -26 16 -46 35 l-36 35
-39 -40 -39 -40 69 -70 c41 -41 78 -70 90 -70 13 0 80 60 185 165 l165 165
-40 40 -40 40 -130 -130z"/>
<path d="M1645 2710 l-129 -130 -41 40 -41 40 -37 -38 c-20 -21 -37 -43 -37
-48 0 -6 29 -39 64 -72 95 -92 90 -93 281 98 l159 160 -39 40 c-21 22 -42 40
-45 40 -3 0 -64 -58 -135 -130z"/>
<path d="M1655 2220 c-71 -72 -134 -130 -140 -130 -5 0 -24 17 -42 37 l-32 38
-43 -43 -43 -43 71 -69 c40 -39 80 -70 90 -70 11 0 88 69 184 165 l165 165
-40 40 -40 40 -130 -130z"/>
<path d="M1645 1720 l-129 -130 -41 40 -41 40 -37 -38 c-20 -21 -37 -43 -37
-48 0 -6 29 -39 64 -72 47 -46 72 -62 92 -62 22 0 58 30 188 160 l161 159 -40
41 c-21 22 -42 40 -45 40 -3 0 -64 -58 -135 -130z"/>
</g>
</svg>
