<?xml version="1.0" standalone="no"?>
<!DOCTYPE svg PUBLIC "-//W3C//DTD SVG 20010904//EN"
 "http://www.w3.org/TR/2001/REC-SVG-20010904/DTD/svg10.dtd">
<svg version="1.0" xmlns="http://www.w3.org/2000/svg"
 width="700.000000pt" height="700.000000pt" viewBox="0 0 700.000000 700.000000"
 preserveAspectRatio="xMidYMid meet">
<metadata>
Created by potrace 1.14, written by Peter Selinger 2001-2017
</metadata>
<g transform="translate(0.000000,700.000000) scale(0.100000,-0.100000)"
fill="#000000" stroke="none">
<path d="M2510 6770 c-70 -15 -200 -84 -256 -137 -64 -60 -116 -140 -145 -224
l-22 -65 -561 1 c-312 1 -577 -3 -596 -8 -70 -19 -141 -88 -156 -154 -3 -15
-8 -35 -10 -43 -3 -13 -36 -15 -231 -15 -249 0 -276 -5 -301 -57 -18 -39 -19
-5752 0 -5792 26 -59 -50 -56 1389 -56 793 0 1325 3 1328 9 5 8 6 56 2 177
l-1 31 -1246 -1 c-685 -1 -1251 2 -1256 5 -11 7 -16 5437 -5 5455 4 7 265 12
312 5 7 0 11 -48 11 -123 0 -131 7 -156 49 -184 23 -15 184 -16 1811 -16 1758
0 1787 0 1813 19 37 28 47 68 46 193 -1 60 1 111 4 111 3 1 77 3 164 3 l157 2
0 -40 c1 -58 1 -4242 0 -4294 l0 -42 -272 2 -272 3 -2 240 c0 164 -5 249 -13
270 -22 53 -63 97 -113 120 -43 20 -65 23 -186 23 -75 1 -154 -3 -175 -8 -78
-17 -151 -94 -164 -172 l-6 -38 -121 0 c-66 0 -138 -5 -159 -11 -65 -18 -139
-100 -152 -168 -2 -9 -4 -71 -4 -138 l-1 -123 -78 0 c-95 0 -162 -29 -203 -88
-40 -56 -46 -92 -45 -257 2 -144 3 -153 28 -196 48 -81 122 -116 241 -114 l57
0 1 -120 c0 -66 3 -131 5 -145 13 -68 90 -149 160 -166 15 -4 81 -7 146 -8
l119 -1 19 -54 c25 -74 48 -102 110 -133 52 -27 59 -28 207 -28 168 0 204 8
257 58 16 15 38 48 50 73 20 43 22 60 21 282 0 153 3 237 10 238 25 3 521 5
530 2 10 -3 11 -421 0 -431 -3 -3 -101 -6 -218 -6 l-212 -1 0 -107 0 -108 288
0 c313 0 331 3 355 55 8 18 12 111 12 309 0 218 3 285 12 288 11 4 286 3 311
-1 4 -1 7 -108 7 -239 0 -236 0 -238 26 -290 51 -102 102 -122 308 -122 175 0
209 11 268 79 32 37 63 115 53 131 -2 3 54 6 125 7 146 1 187 11 241 60 57 52
72 101 72 248 0 69 3 125 6 126 3 1 38 3 76 5 105 5 134 16 182 66 55 57 63
91 63 254 0 175 -10 214 -66 271 -49 49 -92 63 -189 63 l-71 0 -1 131 c-1 137
-9 170 -50 227 -24 32 -83 68 -125 76 -13 3 -77 5 -144 5 l-121 1 -1 29 c-1
36 -32 99 -64 127 -56 52 -84 59 -244 61 -173 3 -223 -8 -275 -60 -65 -65 -69
-86 -69 -354 l0 -243 -165 0 -165 0 0 2258 c0 1784 -3 2262 -13 2282 -25 50
-53 55 -300 55 l-228 0 -5 25 c-18 81 -59 137 -125 172 -42 22 -44 22 -617 23
l-575 0 -31 76 c-66 163 -170 267 -323 326 -76 29 -221 40 -303 23z m234 -230
c67 -26 134 -83 168 -146 26 -48 34 -77 42 -161 6 -52 31 -91 65 -100 14 -4
299 -7 633 -8 335 0 609 -2 609 -5 5 -17 4 -320 0 -321 -4 0 -739 -1 -1634 -2
-1077 -1 -1631 1 -1635 8 -8 12 -10 315 -2 316 3 1 280 2 616 3 648 1 644 1
673 48 7 12 16 46 18 77 17 184 148 309 325 310 44 1 86 -6 122 -19z m1303
-5335 c0 -421 -4 -765 -9 -766 -11 -1 -173 -1 -193 0 -13 1 -15 93 -15 766 l0
765 108 0 109 0 0 -765z m1749 0 l0 -765 -26 -1 c-66 -3 -182 -1 -186 4 -3 3
-6 1016 -4 1470 l0 57 108 0 109 0 -1 -765z m-2186 0 c0 -300 -3 -545 -7 -546
-5 -1 -54 -2 -111 -3 l-102 -1 0 548 0 547 110 0 110 0 0 -545z m2621 538 c7
-51 2 -1076 -5 -1081 -18 -10 -196 -9 -204 2 -6 8 -9 1042 -3 1079 0 4 48 7
106 7 58 0 105 -3 106 -7z m-878 -433 c4 0 7 -49 7 -108 l0 -108 -547 0 -548
0 0 101 c1 55 4 105 7 110 4 7 192 9 540 8 293 -1 536 -2 541 -3z m1203 -2 c5
-6 7 -91 5 -185 -1 -31 -1 -31 -48 -28 -27 2 -51 3 -54 4 -4 1 -6 47 -5 103
l1 103 30 5 c36 7 62 6 71 -2z m-3386 -106 l0 -109 -52 1 -53 1 -1 108 -2 107
54 0 54 0 0 -108z"/>
<path d="M658 5348 c-2 -7 -3 -1048 -3 -2313 1 -1791 4 -2305 13 -2323 7 -12
25 -30 39 -39 25 -17 94 -18 1017 -18 545 -1 996 1 1001 2 8 3 12 134 6 203
-1 13 -109 15 -926 15 -612 0 -925 3 -926 10 -1 5 -2 1013 -3 2240 l-1 2230
-106 3 c-80 2 -108 -1 -111 -10z"/>
<path d="M4375 3830 c0 -1523 0 -1530 20 -1531 104 -4 173 -4 185 2 13 6 15
184 14 1521 -1 832 -2 1519 -3 1526 -1 9 -30 12 -108 12 l-108 0 0 -1530z"/>
<path d="M1978 4757 l-228 -230 -72 72 -71 72 -74 -73 c-40 -40 -73 -75 -73
-78 0 -15 228 -234 255 -245 58 -24 77 -9 361 273 148 148 275 276 282 284 10
13 2 26 -57 87 -38 39 -75 70 -82 70 -8 -1 -116 -105 -241 -232z"/>
<path d="M1983 3888 l-233 -233 -70 71 -71 70 -74 -75 c-41 -41 -75 -78 -75
-81 0 -3 53 -58 118 -122 119 -118 148 -136 200 -123 17 4 127 106 312 290
l285 285 -75 75 c-41 41 -77 75 -80 75 -3 0 -110 -105 -237 -232z"/>
<path d="M1986 3013 l-235 -235 -73 71 -73 71 -72 -73 c-40 -39 -72 -75 -73
-79 0 -15 234 -237 259 -246 56 -19 80 -1 347 267 142 142 269 270 282 284
l23 25 -75 75 -75 75 -235 -235z"/>
<path d="M1983 2138 l-233 -233 -69 69 c-79 79 -71 80 -165 -21 l-60 -64 105
-105 c57 -58 118 -114 135 -124 33 -21 74 -21 109 -2 11 6 144 135 295 286
l275 276 -75 75 c-41 41 -77 75 -80 75 -3 0 -110 -105 -237 -232z"/>
</g>
</svg>
